<?xml version="1.0" encoding="UTF-8" standalone="no"?>
<!-- Created with Inkscape (http://www.inkscape.org/) -->

<svg
   width="131.10905mm"
   height="131.10899mm"
   viewBox="0 0 131.10905 131.10899"
   version="1.1"
   id="svg1"
   xml:space="preserve"
   inkscape:version="1.3.2 (091e20e, 2023-11-25, custom)"
   sodipodi:docname="recipehalltest.svg"
   inkscape:export-filename="recipehalltest.jpg"
   inkscape:export-xdpi="96"
   inkscape:export-ydpi="96"
   xmlns:inkscape="http://www.inkscape.org/namespaces/inkscape"
   xmlns:sodipodi="http://sodipodi.sourceforge.net/DTD/sodipodi-0.dtd"
   xmlns="http://www.w3.org/2000/svg"
   xmlns:svg="http://www.w3.org/2000/svg"><sodipodi:namedview
     id="namedview1"
     pagecolor="#ffffff"
     bordercolor="currentColor"
     borderopacity="0.25"
     inkscape:showpageshadow="2"
     inkscape:pageopacity="0.0"
     inkscape:pagecheckerboard="0"
     inkscape:deskcolor="#d1d1d1"
     inkscape:document-units="mm"
     inkscape:zoom="0.69219277"
     inkscape:cx="1720.619"
     inkscape:cy="3556.0903"
     inkscape:window-width="1920"
     inkscape:window-height="991"
     inkscape:window-x="-9"
     inkscape:window-y="-9"
     inkscape:window-maximized="1"
     inkscape:current-layer="g87"
     showguides="false"><sodipodi:guide
       position="26.419686,887.60206"
       orientation="0,-1"
       id="guide55"
       inkscape:locked="false" /></sodipodi:namedview><defs
     id="defs1" /><g
     inkscape:label="Layer 1"
     inkscape:groupmode="layer"
     id="layer1"
     style="display:none"
     sodipodi:insensitive="true"
     transform="translate(-380.08753,-798.18021)"><path
       id="path20"
       style="fill:currentColor;stroke:none;stroke-width:1.24453;stroke-linecap:round;stroke-linejoin:round;paint-order:stroke fill markers"
       d="m 570.56247,430.57382 c -2.39363,-0.0283 -5.07777,0.4795 -7.29057,0.13824 h -79.41427 l -0.57956,0.28455 -0.0451,0.0216 c -1.47396,5.84064 5.40976,8.58368 9.30702,11.1062 6.03422,3.72184 12.91347,6.35433 18.31716,10.96981 2.91347,5.88355 1.367,12.9157 1.88559,19.25286 -1.63889,5.30044 2.4488,5.82184 6.62521,5.14142 8.57809,-0.20293 17.34505,0.40711 25.80462,-0.30614 0.718,-7.63791 -0.62369,-15.68815 0.9141,-23.18577 5.11186,-5.47359 12.7026,-7.834 18.99116,-11.69442 4.0176,-2.36133 10.48106,-4.95744 9.31505,-10.79945 -1.06302,-0.70204 -2.39429,-0.91197 -3.83046,-0.92891 z m -64.3233,60.85022 c -48.20127,18.68681 -96.60196,36.88731 -144.66279,55.91927 -1.21525,2.7658 4.01229,1.14218 5.61792,1.5918 108.3313,0.22646 216.66846,0.41503 324.99825,-0.30058 1.38544,0.3928 5.7224,-0.2724 2.81759,-1.87819 -47.31855,-18.70446 -94.83629,-36.93862 -142.38524,-55.02925 -15.46031,-0.082 -30.93308,-0.30962 -46.38573,-0.30305 z m -188.95923,72.29157 -0.57957,0.28455 -0.0444,0.0216 c -0.18468,6.71953 -0.46252,13.74852 0.1401,20.39594 10.63919,1.13378 21.50932,0.21906 32.2317,0.56845 130.81305,0.2822 261.62933,0.2315 392.44345,0.3259 1.87114,-2.72639 0.24549,-7.36576 0.79066,-10.79823 -0.54737,-3.42704 1.08528,-8.07988 -0.79066,-10.79822 z m 70.24981,35.53938 c -17.98977,0.2707 -36.04546,-0.43741 -53.99602,0.7419 -2.15344,1.41682 0.0622,5.032 -0.36848,7.20971 6.24818,62.98029 11.55376,126.05784 18.33136,188.98331 0.97096,8.6953 1.99213,19.34714 10.55009,24.09987 3.80129,2.3422 7.68924,4.85375 12.37336,3.88353 104.75189,-0.0552 209.53607,0.14622 314.26793,-0.0673 5.74159,-2.84155 12.00774,-5.99797 14.47065,-12.36964 3.80419,-9.71413 3.14855,-20.48395 4.6853,-30.67263 5.75114,-58.75223 11.61843,-117.50247 16.58525,-176.32602 0.25446,-1.97043 0.83593,-5.63914 -2.37196,-4.78221 -111.50629,-0.74506 -223.01852,-0.63334 -334.52748,-0.70054 z M 286.8042,619.83981 c -1.05657,0.01 -2.09302,0.0913 -3.0762,0.35365 -0.17102,4.80771 -0.47458,9.93177 0.1401,14.66696 6.9599,0.63999 14.30156,-0.34874 21.1471,0.57956 5.31046,2.95861 10.26709,6.92397 15.85385,9.21628 2.14264,-1.76314 0.54262,-5.41309 0.82583,-7.83866 -0.65292,-5.48478 -0.68773,-11.35949 -2.12693,-16.53834 -8.94066,-0.83035 -18.35969,-0.16843 -27.46802,-0.39255 -1.71809,0.12061 -3.53476,-0.063 -5.29573,-0.0469 z m 479.04335,0.0192 c -5.0395,-0.009 -10.1001,0.0935 -15.12305,0.0327 -4.20927,0.5012 -9.03375,-0.85214 -12.94859,0.98754 -1.16444,6.71164 -1.55576,14.00461 -2.2257,20.96193 -0.33612,1.48921 0.21199,4.68343 2.32568,3.00895 5.89076,-3.04652 11.40461,-7.19271 17.36788,-9.82302 6.56735,-0.21298 13.33028,0.41559 19.77934,-0.30677 0.17103,-4.80766 0.4752,-9.93179 -0.13949,-14.66693 -2.9961,-0.14401 -6.01235,-0.18927 -9.03607,-0.19442 z" /></g><g
     inkscape:groupmode="layer"
     id="layer2"
     inkscape:label="Layer 2"
     transform="translate(-380.08753,-798.18021)"><g
       id="g87"
       transform="matrix(0.32693897,0,0,0.32693897,187.98379,431.04561)"><path
         id="rect87"
         style="fill:currentColor;stroke-width:1.55711;stroke-linecap:round;stroke-linejoin:round;paint-order:stroke fill markers"
         d="m 819.9711,1186.0534 c -1.85481,-0.022 -3.93509,0.3711 -5.64974,0.1065 h -61.53878 l -0.44913,0.221 -0.0337,0.016 c -1.14218,4.5258 4.19218,6.6515 7.21216,8.6063 4.6758,2.884 10.00586,4.9244 14.19312,8.5009 2.25777,4.5592 1.05959,10.0081 1.46146,14.9188 -1.26994,4.1072 1.89705,4.5107 5.13337,3.9835 6.64704,-0.1572 13.44116,0.3158 19.99651,-0.237 0.55633,-5.9186 -0.48366,-12.1561 0.70803,-17.966 3.96112,-4.2414 9.84386,-6.0714 14.71688,-9.0627 3.11321,-1.8298 8.12162,-3.8409 7.21802,-8.3678 -0.82374,-0.5441 -1.85538,-0.7066 -2.96827,-0.7198 z m -49.77697,37.3773 c -37.35117,14.4804 -74.85614,28.5835 -112.09841,43.3315 -0.94173,2.1431 3.10797,0.8847 4.35214,1.2332 21.97934,0.046 43.95952,0.053 65.93923,0.083 v -11.3448 h 10.00193 1.02549 66.82719 37.3949 5.5137 v 11.2308 c 21.71303,-0.061 43.42652,-0.058 65.13902,-0.202 1.07361,0.3044 4.43503,-0.2114 2.18412,-1.4556 -36.66708,-14.494 -73.48853,-28.6239 -110.33416,-42.6423 -11.98016,-0.064 -23.9709,-0.2392 -35.94515,-0.2341 z m -30.77962,44.3306 v 0.3306 c 32.903,0.037 65.80561,-0.017 98.70837,-0.093 v -0.2385 H 806.2417 Z m -116.20481,1.2332 -0.44912,0.2195 -0.0336,0.017 c -0.14325,5.207 -0.35873,10.6543 0.10823,15.8054 8.24424,0.8785 16.66751,0.1695 24.97627,0.4404 26.85814,0.058 53.71717,0.039 80.57562,0.067 v -16.55 z m 116.20481,0 v 16.5587 c 5.42594,0 10.8519,0.012 16.27778,0.013 v -5.932 h 67.85272 v 5.9876 c 4.85924,0 9.71858,0.012 14.57787,0.013 v -16.6406 z m 109.73579,0 v 16.6494 c 34.25555,0.013 68.51124,0.06 102.76651,0.084 1.44994,-2.1126 0.18913,-5.708 0.6115,-8.3678 -0.42406,-2.6557 0.84214,-6.26 -0.6115,-8.3665 z m -170.87813,17.5739 c -13.94019,0.2098 -27.93225,-0.3389 -41.84214,0.575 -1.66874,1.0979 0.0481,3.8994 -0.28528,5.5868 4.84167,48.8034 8.95291,97.6823 14.20486,146.4431 0.75245,6.738 1.54468,14.9926 8.17621,18.6755 2.94561,1.815 5.88115,3.01 9.58791,3.0093 l 243.52625,-0.053 c 4.96416,0 9.30468,-4.6477 11.21321,-9.585 2.94771,-7.5274 2.44005,-15.8727 3.63093,-23.768 4.45652,-45.527 9.00287,-91.0534 12.85167,-136.6358 0.19731,-1.5268 0.6484,-4.3696 -1.83742,-3.7054 -29.44859,-0.1968 -58.89856,-0.2448 -88.34807,-0.319 v 37.0292 h 1.9135 c 0.87025,0.129 1.92436,0.2078 3.41296,0.2078 h 5.29574 v -6.1151 h 19.06026 v -4.6227 H 859.7725 v -3.9806 h 19.06026 v -4.6228 H 859.7725 v -3.9806 h 19.06026 v -4.6228 H 859.7725 v -4.8656 h 10.40568 c 15.89787,0 19.05585,2.7572 19.05585,16.642 0,6.2062 -0.37535,7.9843 -2.23969,10.6251 -2.92784,4.1476 -5.95031,5.5117 -12.24604,5.5284 -3.58409,0.012 -5.15528,0.3882 -5.15528,1.2406 0,0.6743 7.14628,20.1848 15.87987,43.3562 16.59312,44.0235 17.99708,49.0997 15.53759,56.2137 -1.59842,4.6233 -7.37598,10.6313 -12.26797,12.7582 -3.71534,1.6153 -9.19317,1.7086 -101.14854,1.7086 -91.95236,0 -97.43167,-0.094 -101.14706,-1.7086 -4.89188,-2.1271 -10.6697,-8.1349 -12.26795,-12.7582 -2.45949,-7.1139 -1.05547,-12.1903 15.53756,-56.2137 8.73363,-23.1714 15.8799,-42.6338 15.8799,-43.248 0,-0.7093 -2.31843,-1.2573 -6.35195,-1.5025 -7.23424,-0.4396 -10.48853,-2.5386 -12.37037,-7.9816 -1.09825,-3.1767 -1.11971,-3.1873 -6.65625,-2.9097 l -5.55613,0.278 -0.27358,12.3294 c -0.29433,13.2794 -0.81086,14.6218 -5.61904,14.6218 -5.12577,0 -5.39958,-0.9673 -5.39958,-18.9827 0,-14.3266 0.22532,-16.8221 1.62089,-17.9295 1.05449,-0.8368 4.95007,-1.3983 11.14298,-1.6048 l 9.52065,-0.3175 1.70134,-3.6807 c 2.48607,-5.379 5.45865,-6.4645 17.70121,-6.4645 h 10.35887 v 4.8656 h -19.9892 v 4.6228 h 19.9892 v 3.9806 h -19.9892 v 4.6228 h 19.9892 v 3.9806 h -19.9892 v 4.6227 h 19.9892 v 6.1151 h 5.29575 c 1.4886,0 2.5441,-0.079 3.4144,-0.2078 h 4.26148 v -37.2238 c -16.70496,0 -33.41013,-0.02 -50.11492,-0.029 z m 61.14234,0.035 v 37.2179 h 18.2805 c 5.96268,0.036 13.68784,0.039 23.59092,0 h 56.83695 v -37.0687 c -4.85933,-0.012 -9.7186,-0.044 -14.57787,-0.052 v 3.96 h -67.85272 v -4.0479 c -5.42588,0 -10.85184,-0.012 -16.27778,-0.012 z m -131.00361,15.166 c -0.81873,0.012 -1.62121,0.071 -2.38308,0.2735 -0.13249,3.7255 -0.36799,7.6961 0.10824,11.3655 5.39314,0.4959 11.0829,-0.2702 16.3875,0.449 4.11508,2.2926 7.95486,5.3657 12.28406,7.1419 1.66032,-1.3662 0.4212,-4.1943 0.64074,-6.0739 -0.50596,-4.2502 -0.53342,-8.802 -1.64869,-12.8152 -6.92809,-0.6434 -14.22583,-0.1306 -21.2839,-0.3042 -1.33134,0.094 -2.74034,-0.049 -4.10492,-0.037 z m 354.6372,0.015 c -3.90512,-0.012 -7.82711,0.072 -11.71938,0.025 -3.26177,0.3884 -7.00046,-0.6604 -10.03409,0.7652 -0.90229,5.2007 -1.20418,10.8528 -1.7233,16.2441 -0.26045,1.154 0.16292,3.6294 1.80082,2.3319 4.56472,-2.3607 8.83779,-5.5748 13.4588,-7.613 5.08894,-0.165 10.32957,0.3228 15.3269,-0.2371 0.13248,-3.7253 0.36804,-7.696 -0.10824,-11.3652 -2.32168,-0.1112 -4.65842,-0.1467 -7.0015,-0.1508 z m -207.35581,1.0504 h 33.24463 v 11.026 h -33.24463 z m 8.64872,37.9142 c -0.56873,-0.012 -1.13017,0.054 -1.6838,0.1536 h -6.64013 v 6.8786 c -0.1431,0.9529 -0.13713,1.7233 0,2.4299 v 6.9078 h 17.09263 v -7.2603 c 0.12934,-0.6771 0.15417,-1.358 0,-2.0525 v -6.9035 h -7.46668 c -0.43336,-0.073 -0.86809,-0.1463 -1.30202,-0.1536 z m -49.39222,0.1536 v 16.2163 h 17.09265 v -7.607 c 0.0295,-0.3775 0.0233,-0.7556 0,-1.1368 v -7.4725 h -7.90265 z m 84.23875,0 v 16.2163 h 17.09266 v -16.2163 z m 43.55377,0 v 16.2163 h 17.09263 v -16.2163 h -8.54486 z M 830.97072,1373.6 c -0.43191,0 -0.86427,0.051 -1.29466,0.1146 h -7.23117 v 7.752 c -0.008,0.1335 10e-4,0.2633 0,0.3963 v 8.068 h 17.09263 v -16.2163 h -7.83535 c -0.24615,-0.025 -0.48374,-0.1111 -0.73145,-0.1146 z m -43.37528,0.1123 c -0.003,0 -0.007,0 -0.0104,0 h -8.53752 v 16.2163 h 17.09263 v -16.2163 h -8.53462 c -0.003,0 -0.007,0 -0.0104,0 z m -51.94354,0 v 7.7695 c -1.4e-4,0.017 -0.006,0.034 -0.006,0.051 0,0.019 0.006,0.038 0.006,0.057 v 8.3387 h 17.09263 v -7.5896 c 2.5e-4,-0.012 -2e-4,-0.014 0,-0.021 v -8.6063 z m -12.15678,33.2783 v 16.4416 h 63.77117 0.41399 64.01257 v -16.4416 z" /><rect
         style="fill:none;stroke:none;stroke-width:3.61727;stroke-linecap:square;stroke-linejoin:round;stroke-dasharray:none;paint-order:stroke fill markers"
         id="rect99"
         width="401.0199"
         height="401.01993"
         x="587.58289"
         y="1122.9453"
         rx="1.0814431e-05"
         ry="1.0814431e-05" /></g></g></svg>
